<svg xmlns="http://www.w3.org/2000/svg" width="640" height="384" viewBox="0 0 320 192" role="img" aria-labelledby="title desc">
  <title id="title">Preview Vol — consistent sample auditioning</title>
  <desc id="desc">An original speaker and waveform illustration. Three different track volume positions lead to the same default preview AMP volume. This artwork is not an OT screenshot or loudness measurement.</desc>
  <rect width="320" height="192" rx="8" fill="#14171c"/>
  <g stroke="#292e38" stroke-width="1"><path d="M20 52H300M20 97H300M20 142H300M64 33V163M128 33V163M192 33V163M256 33V163"/></g>
  <g stroke="#7a8496" stroke-width="2" stroke-linecap="round"><path d="M31 57H74M31 96H74M31 135H74"/></g>
  <g fill="#7a8496"><circle cx="35" cy="57" r="4"/><circle cx="54" cy="96" r="4"/><circle cx="70" cy="135" r="4"/></g>
  <g stroke="#b6a6ed" stroke-width="2" stroke-linecap="round" stroke-linejoin="round"><path d="M81 78H91L105 65V127L91 114H81Z" fill="#232032"/><path d="M113 84Q125 96 113 108M120 74Q142 96 120 118" fill="none"/><path d="M136.0 96.0 L137.3 103.2 L138.6 109.7 L139.9 114.8 L141.2 118.0 L142.5 119.0 L143.8 117.6 L145.1 114.0 L146.4 108.6 L147.7 101.9 L149.0 94.7 L150.3 87.5 L151.6 81.2 L152.9 76.4 L154.2 73.6 L155.5 73.1 L156.8 74.9 L158.1 78.8 L159.4 84.5 L160.7 91.4 L162.0 98.7 L163.3 105.7 L164.6 111.8 L165.9 116.3 L167.2 118.7 L168.5 118.8 L169.8 116.5 L171.1 112.3 L172.4 106.3 L173.7 99.3 L175.0 92.0 L176.3 85.1 L177.6 79.3 L178.9 75.1 L180.2 73.2 L181.5 73.5 L182.8 76.1 L184.1 80.7 L185.4 86.9 L186.7 94.0 L188.0 101.3 L189.3 108.1 L190.6 113.6 L191.9 117.4 L193.2 119.0 L194.5 118.2 L195.8 115.2 L197.1 110.2 L198.4 103.8 L199.7 96.6 L201.0 89.4 L202.3 82.8 L203.6 77.5 L204.9 74.2 L206.2 73.0 L207.5 74.2 L208.8 77.6 L210.1 82.8 L211.4 89.4 L212.7 96.7 L214.0 103.9 L215.3 110.3 L216.6 115.2 L217.9 118.2 L219.2 119.0 L220.5 117.4 L221.8 113.6 L223.1 108.0 L224.4 101.3 L225.7 94.0 L227.0 86.9 L228.3 80.7 L229.6 76.1 L230.9 73.5 L232.2 73.2 L233.5 75.2 L234.8 79.3 L236.1 85.1 L237.4 92.0 L238.7 99.4 L240.0 106.4 L241.3 112.3 L242.6 116.6 L243.9 118.8 L245.2 118.6 L246.5 116.2 L247.8 111.8 L249.1 105.7 L250.4 98.6 L251.7 91.3 L253.0 84.5 L254.3 78.8 L255.6 74.9 L256.9 73.1 L258.2 73.6 L259.5 76.5 L260.8 81.3 L262.1 87.6 L263.4 94.7 L264.7 102.0 L266.0 108.7 L267.3 114.1 L268.6 117.6 L269.9 119.0 L271.2 118.0 L272.5 114.8 L273.8 109.7 L275.1 103.2 L276.4 95.9 L277.7 88.7 L279.0 82.2 L280.3 77.1 L281.6 73.9 L282.9 73.0 L284.2 74.4 L285.5 78.0 L286.8 83.4 L288.1 90.1 L289.4 97.4 L290.7 104.6 L292.0 110.8" fill="none"/></g>
  <circle cx="272" cy="32" r="3" fill="#b6a6ed"/>
  <g fill="#adb5c4" font-family="ui-monospace, SFMono-Regular, Menlo, monospace" font-size="9" letter-spacing="1"><text x="25" y="25">PREVIEW VOL</text><text x="25" y="177">TRACK AMP</text><text x="162" y="177">DEFAULT PREVIEW</text></g>
</svg>
