<svg xmlns="http://www.w3.org/2000/svg" viewBox="0 0 320 192"><rect width="320" height="192" fill="#1c1c22"/><g fill="#3d3d4b"><circle cx="136" cy="40" r="1.4"/><circle cx="136" cy="56" r="1.4"/><circle cx="136" cy="72" r="1.4"/><circle cx="136" cy="88" r="1.4"/><circle cx="136" cy="104" r="1.4"/><circle cx="136" cy="120" r="1.4"/><circle cx="136" cy="136" r="1.4"/><circle cx="136" cy="152" r="1.4"/><circle cx="152" cy="40" r="1.4"/><circle cx="152" cy="56" r="1.4"/><circle cx="152" cy="72" r="1.4"/><circle cx="152" cy="88" r="1.4"/><circle cx="152" cy="104" r="1.4"/><circle cx="152" cy="120" r="1.4"/><circle cx="152" cy="136" r="1.4"/><circle cx="152" cy="152" r="1.4"/><circle cx="168" cy="40" r="1.4"/><circle cx="168" cy="56" r="1.4"/><circle cx="168" cy="72" r="1.4"/><circle cx="168" cy="88" r="1.4"/><circle cx="168" cy="104" r="1.4"/><circle cx="168" cy="120" r="1.4"/><circle cx="168" cy="136" r="1.4"/><circle cx="168" cy="152" r="1.4"/><circle cx="184" cy="40" r="1.4"/><circle cx="184" cy="56" r="1.4"/><circle cx="184" cy="72" r="1.4"/><circle cx="184" cy="88" r="1.4"/><circle cx="184" cy="104" r="1.4"/><circle cx="184" cy="120" r="1.4"/><circle cx="184" cy="136" r="1.4"/><circle cx="184" cy="152" r="1.4"/><circle cx="200" cy="40" r="1.4"/><circle cx="200" cy="56" r="1.4"/><circle cx="200" cy="72" r="1.4"/><circle cx="200" cy="88" r="1.4"/><circle cx="200" cy="104" r="1.4"/><circle cx="200" cy="120" r="1.4"/><circle cx="200" cy="136" r="1.4"/><circle cx="200" cy="152" r="1.4"/><circle cx="216" cy="40" r="1.4"/><circle cx="216" cy="56" r="1.4"/><circle cx="216" cy="72" r="1.4"/><circle cx="216" cy="88" r="1.4"/><circle cx="216" cy="104" r="1.4"/><circle cx="216" cy="120" r="1.4"/><circle cx="216" cy="136" r="1.4"/><circle cx="216" cy="152" r="1.4"/><circle cx="232" cy="40" r="1.4"/><circle cx="232" cy="56" r="1.4"/><circle cx="232" cy="72" r="1.4"/><circle cx="232" cy="88" r="1.4"/><circle cx="232" cy="104" r="1.4"/><circle cx="232" cy="120" r="1.4"/><circle cx="232" cy="136" r="1.4"/><circle cx="232" cy="152" r="1.4"/><circle cx="248" cy="40" r="1.4"/><circle cx="248" cy="56" r="1.4"/><circle cx="248" cy="72" r="1.4"/><circle cx="248" cy="88" r="1.4"/><circle cx="248" cy="104" r="1.4"/><circle cx="248" cy="120" r="1.4"/><circle cx="248" cy="136" r="1.4"/><circle cx="248" cy="152" r="1.4"/></g><path d="M20.0 96.0 L22.0 89.8 L24.0 84.2 L26.0 79.8 L28.0 77.0 L30.0 76.0 L32.0 77.0 L34.0 79.8 L36.0 84.2 L38.0 89.8 L40.0 96.0 L42.0 102.2 L44.0 107.8 L46.0 112.2 L48.0 115.0 L50.0 116.0 L52.0 115.0 L54.0 112.2 L56.0 107.8 L58.0 102.2 L60.0 96.0 L62.0 89.8 L64.0 84.2 L66.0 79.8 L68.0 77.0 L70.0 76.0 L72.0 77.0 L74.0 79.8 L76.0 84.2 L78.0 89.8 L80.0 96.0 L82.0 102.2 L84.0 107.8 L86.0 112.2 L88.0 115.0 L90.0 116.0 L92.0 115.0 L94.0 112.2 L96.0 107.8 L98.0 102.2 L100.0 96.0" stroke="#b9a6ef" stroke-width="2.3" fill="none" stroke-linejoin="round"/><circle cx="112" cy="96" r="4.5" fill="#b9a6ef"/><path d="M116 96 C138 96 144 40 168 40 L260 40" stroke="#b9a6ef" stroke-width="2.4" fill="none" opacity="1"/><circle cx="168" cy="40" r="3" fill="#1c1c22" stroke="#e6d3a3" stroke-width="1.6"/><circle cx="264" cy="40" r="3.5" fill="#b9a6ef" opacity="1"/><path d="M274 40H308" stroke="#e6d3a3" stroke-width="4" stroke-linecap="round"/><path d="M116 96 C170 96 176 88 200 88 L260 88" stroke="#b9a6ef" stroke-width="1.4" fill="none" opacity="0.75"/><circle cx="200" cy="88" r="3" fill="#1c1c22" stroke="#e6d3a3" stroke-width="1.6"/><circle cx="264" cy="88" r="3.5" fill="#b9a6ef" opacity="0.75"/><path d="M274 88H288" stroke="#e6d3a3" stroke-width="4" stroke-linecap="round"/><path d="M116 96 C154 96 160 120 184 120 L260 120" stroke="#b9a6ef" stroke-width="2" fill="none" opacity="0.9"/><circle cx="184" cy="120" r="3" fill="#1c1c22" stroke="#e6d3a3" stroke-width="1.6"/><circle cx="264" cy="120" r="3.5" fill="#b9a6ef" opacity="0.9"/><path d="M274 120H298" stroke="#e6d3a3" stroke-width="4" stroke-linecap="round"/><path d="M116 96 C202 96 208 152 232 152 L260 152" stroke="#b9a6ef" stroke-width="1.1" fill="none" opacity="0.6"/><circle cx="232" cy="152" r="3" fill="#1c1c22" stroke="#e6d3a3" stroke-width="1.6"/><circle cx="264" cy="152" r="3.5" fill="#b9a6ef" opacity="0.6"/><path d="M274 152H282" stroke="#e6d3a3" stroke-width="4" stroke-linecap="round"/></svg>